<?xml version="1.0" standalone="no"?>
<!DOCTYPE svg PUBLIC "-//W3C//DTD SVG 20010904//EN"
 "http://www.w3.org/TR/2001/REC-SVG-20010904/DTD/svg10.dtd">
<svg version="1.0" xmlns="http://www.w3.org/2000/svg"
 width="801.000000pt" height="801.000000pt" viewBox="0 0 801.000000 801.000000"
 preserveAspectRatio="xMidYMid meet">

<g transform="translate(0.000000,801.000000) scale(0.100000,-0.100000)"
fill="#000000" stroke="none">
<path d="M925 4628 c-3 -7 -4 -285 -3 -618 l3 -605 118 -3 117 -3 0 42 c0 41
0 41 23 25 136 -97 265 -110 414 -39 206 97 291 382 181 612 -99 208 -361 291
-552 176 l-56 -34 0 230 0 229 -120 0 c-87 0 -122 -3 -125 -12z m559 -625 c87
-60 116 -195 63 -286 -102 -174 -351 -121 -383 82 -14 89 46 195 129 225 62
23 141 14 191 -21z"/>
<path d="M2915 4628 c-3 -7 -4 -285 -3 -618 l3 -605 123 -3 122 -3 0 621 0
620 -120 0 c-87 0 -122 -3 -125 -12z"/>
<path d="M3320 4420 l0 -220 125 0 125 0 -2 218 -3 217 -122 3 -123 3 0 -221z"/>
<path d="M6412 3968 l3 -563 47 -3 47 -3 3 273 c3 262 4 275 26 320 75 152
298 186 400 62 50 -61 55 -88 59 -381 l5 -273 44 0 45 0 -3 303 c-3 295 -4
303 -27 351 -52 106 -138 159 -268 164 -112 5 -178 -15 -237 -73 l-46 -44 0
214 0 215 -50 0 -50 0 2 -562z"/>
<path d="M4118 4343 l-3 -138 -72 -3 -73 -3 0 -39 0 -40 69 0 69 0 4 -272 c4
-226 8 -281 22 -319 38 -103 137 -158 260 -144 60 6 167 50 173 70 2 6 -6 24
-16 41 l-19 32 -52 -26 c-68 -33 -156 -36 -197 -6 -15 12 -37 36 -48 55 -18
31 -20 55 -23 302 l-3 267 165 0 166 0 0 40 0 40 -165 0 -165 0 0 140 0 140
-45 0 -44 0 -3 -137z"/>
<path d="M2244 4255 c-179 -39 -306 -176 -334 -361 -25 -159 41 -329 163 -422
92 -70 231 -102 358 -83 239 36 391 224 377 466 -12 197 -135 347 -323 395
-89 23 -154 24 -241 5z m190 -235 c74 -28 126 -109 126 -198 0 -51 -5 -67 -32
-108 -112 -167 -351 -107 -375 94 -9 78 44 179 107 204 67 27 118 30 174 8z"/>
<path d="M4890 4205 c-110 -31 -185 -95 -242 -205 -32 -64 -33 -67 -33 -195 0
-125 1 -133 31 -196 42 -88 93 -142 168 -179 142 -70 313 -62 478 21 31 16 59
33 62 38 6 9 -30 81 -40 81 -3 0 -21 -11 -42 -25 -97 -64 -288 -87 -381 -45
-96 44 -159 123 -177 223 l-6 37 330 0 329 0 7 40 c8 50 -9 162 -33 215 -30
66 -96 132 -167 165 -80 39 -198 49 -284 25z m199 -91 c95 -28 181 -135 181
-226 l0 -38 -281 0 -281 0 7 37 c19 101 104 198 197 226 69 20 113 20 177 1z"/>
<path d="M5797 4205 c-78 -20 -137 -56 -196 -121 -66 -72 -93 -143 -99 -260
-11 -233 118 -402 334 -436 160 -24 348 52 417 170 l18 31 -38 25 -37 26 -44
-51 c-99 -112 -268 -148 -390 -81 -50 27 -108 88 -133 139 -31 64 -38 186 -14
265 21 75 93 156 167 189 62 27 179 32 241 11 47 -17 134 -86 149 -118 6 -13
17 -24 23 -24 20 0 75 31 75 41 0 21 -61 98 -102 128 -94 69 -249 97 -371 66z"/>
<path d="M3322 3773 c3 -178 3 -179 35 -244 39 -78 82 -111 175 -135 73 -19
155 -14 250 16 107 33 106 31 68 136 -18 49 -36 93 -40 97 -3 4 -28 -1 -54
-13 -77 -33 -149 -21 -172 28 -5 9 -11 78 -14 152 l-5 135 -123 3 -124 3 4
-178z"/>
</g>
</svg>
